ISO-10303-21;
HEADER;
/* Generated by software containing ST-Developer
 * from STEP Tools, Inc. (www.steptools.com) 
 */

FILE_DESCRIPTION(
/* description */ (''),
/* implementation_level */ '2;1');

FILE_NAME(
/* name */ 'Corpo de prova.step',
/* time_stamp */ '2025-12-17T15:12:13-03:00',
/* author */ (''),
/* organization */ (''),
/* preprocessor_version */ 'ST-DEVELOPER v20.1',
/* originating_system */ 'Autodesk Translation Framework v14.21.0.0',
/* authorisation */ '');

FILE_SCHEMA (('AUTOMOTIVE_DESIGN { 1 0 10303 214 3 1 1 }'));
ENDSEC;

DATA;
#10=MECHANICAL_DESIGN_GEOMETRIC_PRESENTATION_REPRESENTATION('',(#21),#259);
#11=ITEM_DEFINED_TRANSFORMATION($,$,#131,#144);
#12=ITEM_DEFINED_TRANSFORMATION($,$,#130,#145);
#13=(
REPRESENTATION_RELATIONSHIP($,$,#274,#273)
REPRESENTATION_RELATIONSHIP_WITH_TRANSFORMATION(#11)
SHAPE_REPRESENTATION_RELATIONSHIP()
);
#14=(
REPRESENTATION_RELATIONSHIP($,$,#273,#272)
REPRESENTATION_RELATIONSHIP_WITH_TRANSFORMATION(#12)
SHAPE_REPRESENTATION_RELATIONSHIP()
);
#15=CONTEXT_DEPENDENT_SHAPE_REPRESENTATION(#13,#270);
#16=CONTEXT_DEPENDENT_SHAPE_REPRESENTATION(#14,#271);
#17=NEXT_ASSEMBLY_USAGE_OCCURRENCE('Componente1:1','Componente1:1',
'Componente1:1',#277,#278,'Componente1:1');
#18=NEXT_ASSEMBLY_USAGE_OCCURRENCE('usinagem tarugo v2:1',
'usinagem tarugo v2:1','usinagem tarugo v2:1',#276,#277,
'usinagem tarugo v2:1');
#19=SHAPE_REPRESENTATION_RELATIONSHIP('SRR','None',#274,#20);
#20=ADVANCED_BREP_SHAPE_REPRESENTATION('',(#22),#258);
#21=STYLED_ITEM('',(#292),#22);
#22=MANIFOLD_SOLID_BREP('Corpo1',#116);
#23=FACE_BOUND('',#46,.T.);
#24=FACE_BOUND('',#49,.T.);
#25=PLANE('',#138);
#26=PLANE('',#142);
#27=PLANE('',#143);
#28=B_SPLINE_CURVE_WITH_KNOTS('',3,(#195,#196,#197,#198,#199,#200,#201,
#202,#203,#204,#205,#206,#207,#208,#209,#210,#211,#212),.UNSPECIFIED.,.F.,
 .F.,(4,2,2,2,2,2,2,2,4),(0.380358825026584,0.475446195060883,0.570533565095182,
0.665625607574175,0.760717650053167,0.85580969253216,0.950901735011152,
1.04598910504545,1.14107647507975),.UNSPECIFIED.);
#29=B_SPLINE_CURVE_WITH_KNOTS('',3,(#214,#215,#216,#217,#218,#219,#220,
#221,#222,#223),.UNSPECIFIED.,.F.,.F.,(4,2,2,2,4),(1.52143530010633,1.61652734258533,
1.71161938506432,1.80670675509862,1.90179412513292),.UNSPECIFIED.);
#30=B_SPLINE_CURVE_WITH_KNOTS('',3,(#225,#226,#227,#228,#229,#230,#231,
#232,#233,#234),.UNSPECIFIED.,.F.,.F.,(4,2,2,2,4),(1.14107647507975,1.23616384511405,
1.33125121514835,1.42634325762734,1.52143530010633),.UNSPECIFIED.);
#31=CYLINDRICAL_SURFACE('',#134,2.5175);
#32=CYLINDRICAL_SURFACE('',#135,6.3);
#33=CYLINDRICAL_SURFACE('',#139,13.);
#34=FACE_OUTER_BOUND('',#41,.T.);
#35=FACE_OUTER_BOUND('',#42,.T.);
#36=FACE_OUTER_BOUND('',#43,.T.);
#37=FACE_OUTER_BOUND('',#44,.T.);
#38=FACE_OUTER_BOUND('',#45,.T.);
#39=FACE_OUTER_BOUND('',#47,.T.);
#40=FACE_OUTER_BOUND('',#48,.T.);
#41=EDGE_LOOP('',(#84,#85,#86));
#42=EDGE_LOOP('',(#87,#88,#89,#90,#91,#92));
#43=EDGE_LOOP('',(#93,#94,#95,#96));
#44=EDGE_LOOP('',(#97));
#45=EDGE_LOOP('',(#98,#99,#100,#101));
#46=EDGE_LOOP('',(#102,#103,#104));
#47=EDGE_LOOP('',(#105));
#48=EDGE_LOOP('',(#106));
#49=EDGE_LOOP('',(#107));
#50=LINE('',#191,#54);
#51=LINE('',#224,#55);
#52=LINE('',#239,#56);
#53=LINE('',#246,#57);
#54=VECTOR('',#156,1.25875);
#55=VECTOR('',#159,2.5175);
#56=VECTOR('',#164,6.3);
#57=VECTOR('',#173,13.);
#58=CIRCLE('',#133,2.5175);
#59=CIRCLE('',#136,6.3);
#60=CIRCLE('',#137,6.3);
#61=CIRCLE('',#140,13.);
#62=CIRCLE('',#141,13.);
#63=VERTEX_POINT('',#188);
#64=VERTEX_POINT('',#190);
#65=VERTEX_POINT('',#193);
#66=VERTEX_POINT('',#194);
#67=VERTEX_POINT('',#213);
#68=VERTEX_POINT('',#236);
#69=VERTEX_POINT('',#238);
#70=VERTEX_POINT('',#243);
#71=VERTEX_POINT('',#245);
#72=EDGE_CURVE('',#63,#63,#58,.T.);
#73=EDGE_CURVE('',#63,#64,#50,.T.);
#74=EDGE_CURVE('',#65,#66,#28,.T.);
#75=EDGE_CURVE('',#67,#65,#29,.T.);
#76=EDGE_CURVE('',#67,#63,#51,.T.);
#77=EDGE_CURVE('',#66,#67,#30,.T.);
#78=EDGE_CURVE('',#68,#68,#59,.T.);
#79=EDGE_CURVE('',#68,#69,#52,.T.);
#80=EDGE_CURVE('',#69,#69,#60,.T.);
#81=EDGE_CURVE('',#70,#70,#61,.T.);
#82=EDGE_CURVE('',#70,#71,#53,.T.);
#83=EDGE_CURVE('',#71,#71,#62,.T.);
#84=ORIENTED_EDGE('',*,*,#72,.F.);
#85=ORIENTED_EDGE('',*,*,#73,.T.);
#86=ORIENTED_EDGE('',*,*,#73,.F.);
#87=ORIENTED_EDGE('',*,*,#74,.F.);
#88=ORIENTED_EDGE('',*,*,#75,.F.);
#89=ORIENTED_EDGE('',*,*,#76,.T.);
#90=ORIENTED_EDGE('',*,*,#72,.T.);
#91=ORIENTED_EDGE('',*,*,#76,.F.);
#92=ORIENTED_EDGE('',*,*,#77,.F.);
#93=ORIENTED_EDGE('',*,*,#78,.F.);
#94=ORIENTED_EDGE('',*,*,#79,.T.);
#95=ORIENTED_EDGE('',*,*,#80,.T.);
#96=ORIENTED_EDGE('',*,*,#79,.F.);
#97=ORIENTED_EDGE('',*,*,#80,.F.);
#98=ORIENTED_EDGE('',*,*,#81,.F.);
#99=ORIENTED_EDGE('',*,*,#82,.T.);
#100=ORIENTED_EDGE('',*,*,#83,.F.);
#101=ORIENTED_EDGE('',*,*,#82,.F.);
#102=ORIENTED_EDGE('',*,*,#74,.T.);
#103=ORIENTED_EDGE('',*,*,#77,.T.);
#104=ORIENTED_EDGE('',*,*,#75,.T.);
#105=ORIENTED_EDGE('',*,*,#83,.T.);
#106=ORIENTED_EDGE('',*,*,#81,.T.);
#107=ORIENTED_EDGE('',*,*,#78,.T.);
#108=CONICAL_SURFACE('',#132,1.25875,1.02974425867665);
#109=ADVANCED_FACE('',(#34),#108,.F.);
#110=ADVANCED_FACE('',(#35),#31,.F.);
#111=ADVANCED_FACE('',(#36),#32,.F.);
#112=ADVANCED_FACE('',(#37),#25,.F.);
#113=ADVANCED_FACE('',(#38,#23),#33,.T.);
#114=ADVANCED_FACE('',(#39),#26,.T.);
#115=ADVANCED_FACE('',(#40,#24),#27,.T.);
#116=CLOSED_SHELL('',(#109,#110,#111,#112,#113,#114,#115));
#117=DERIVED_UNIT_ELEMENT(#119,1.);
#118=DERIVED_UNIT_ELEMENT(#261,-3.);
#119=(
MASS_UNIT()
NAMED_UNIT(*)
SI_UNIT(.KILO.,.GRAM.)
);
#120=DERIVED_UNIT((#117,#118));
#121=MEASURE_REPRESENTATION_ITEM('density measure',
POSITIVE_RATIO_MEASURE(2700.),#120);
#122=PROPERTY_DEFINITION_REPRESENTATION(#127,#124);
#123=PROPERTY_DEFINITION_REPRESENTATION(#128,#125);
#124=REPRESENTATION('material name',(#126),#258);
#125=REPRESENTATION('density',(#121),#258);
#126=DESCRIPTIVE_REPRESENTATION_ITEM('Alum\X\EDnio','Alum\X\EDnio');
#127=PROPERTY_DEFINITION('material property','material name',#278);
#128=PROPERTY_DEFINITION('material property','density of part',#278);
#129=AXIS2_PLACEMENT_3D('',#184,#146,#147);
#130=AXIS2_PLACEMENT_3D('',#185,#148,#149);
#131=AXIS2_PLACEMENT_3D('',#186,#150,#151);
#132=AXIS2_PLACEMENT_3D('',#187,#152,#153);
#133=AXIS2_PLACEMENT_3D('',#189,#154,#155);
#134=AXIS2_PLACEMENT_3D('',#192,#157,#158);
#135=AXIS2_PLACEMENT_3D('',#235,#160,#161);
#136=AXIS2_PLACEMENT_3D('',#237,#162,#163);
#137=AXIS2_PLACEMENT_3D('',#240,#165,#166);
#138=AXIS2_PLACEMENT_3D('',#241,#167,#168);
#139=AXIS2_PLACEMENT_3D('',#242,#169,#170);
#140=AXIS2_PLACEMENT_3D('',#244,#171,#172);
#141=AXIS2_PLACEMENT_3D('',#247,#174,#175);
#142=AXIS2_PLACEMENT_3D('',#248,#176,#177);
#143=AXIS2_PLACEMENT_3D('',#249,#178,#179);
#144=AXIS2_PLACEMENT_3D('',#250,#180,#181);
#145=AXIS2_PLACEMENT_3D('',#251,#182,#183);
#146=DIRECTION('axis',(0.,0.,1.));
#147=DIRECTION('refdir',(1.,0.,0.));
#148=DIRECTION('axis',(0.,0.,1.));
#149=DIRECTION('refdir',(1.,0.,0.));
#150=DIRECTION('axis',(0.,0.,1.));
#151=DIRECTION('refdir',(1.,0.,0.));
#152=DIRECTION('center_axis',(0.,1.,0.));
#153=DIRECTION('ref_axis',(0.,0.,1.));
#154=DIRECTION('center_axis',(0.,-1.,0.));
#155=DIRECTION('ref_axis',(0.,0.,1.));
#156=DIRECTION('',(-1.04972719113862E-16,-0.515038074910054,0.857167300702112));
#157=DIRECTION('center_axis',(0.,-1.,0.));
#158=DIRECTION('ref_axis',(0.,0.,1.));
#159=DIRECTION('',(0.,-1.,0.));
#160=DIRECTION('center_axis',(-1.,0.,2.22044604925031E-16));
#161=DIRECTION('ref_axis',(0.,1.,0.));
#162=DIRECTION('center_axis',(-1.,0.,2.22044604925031E-16));
#163=DIRECTION('ref_axis',(0.,1.,0.));
#164=DIRECTION('',(-1.,0.,2.22044604925031E-16));
#165=DIRECTION('center_axis',(-1.,0.,2.22044604925031E-16));
#166=DIRECTION('ref_axis',(0.,1.,0.));
#167=DIRECTION('center_axis',(-1.,0.,2.22044604925031E-16));
#168=DIRECTION('ref_axis',(0.,1.,0.));
#169=DIRECTION('center_axis',(1.,0.,-2.22044604925031E-16));
#170=DIRECTION('ref_axis',(-2.22044604925031E-16,0.,-1.));
#171=DIRECTION('center_axis',(1.,0.,-2.22044604925031E-16));
#172=DIRECTION('ref_axis',(-2.22044604925031E-16,0.,-1.));
#173=DIRECTION('',(-1.,0.,2.22044604925031E-16));
#174=DIRECTION('center_axis',(-1.,0.,2.22044604925031E-16));
#175=DIRECTION('ref_axis',(-2.22044604925031E-16,0.,-1.));
#176=DIRECTION('center_axis',(-1.,0.,2.22044604925031E-16));
#177=DIRECTION('ref_axis',(2.22044604925031E-16,0.,1.));
#178=DIRECTION('center_axis',(1.,0.,-2.22044604925031E-16));
#179=DIRECTION('ref_axis',(-2.22044604925031E-16,0.,-1.));
#180=DIRECTION('',(0.,0.,1.));
#181=DIRECTION('',(1.,0.,0.));
#182=DIRECTION('',(1.22464658788737E-16,2.71926167780239E-32,-1.));
#183=DIRECTION('',(-4.44089209850063E-16,1.,-2.71926167780239E-32));
#184=CARTESIAN_POINT('',(0.,0.,0.));
#185=CARTESIAN_POINT('',(0.,0.,0.));
#186=CARTESIAN_POINT('',(0.,0.,0.));
#187=CARTESIAN_POINT('Origin',(7.5,-0.756333304200942,-2.38806125833734E-15));
#188=CARTESIAN_POINT('',(7.5,-1.38777878078145E-16,-2.5175));
#189=CARTESIAN_POINT('Origin',(7.5,0.,-2.38806125833734E-15));
#190=CARTESIAN_POINT('',(7.5,-1.51266660840188,-2.38806125833734E-15));
#191=CARTESIAN_POINT('',(7.5,-0.756333304200942,-1.25875));
#192=CARTESIAN_POINT('Origin',(7.5,6.5,-2.38806125833734E-15));
#193=CARTESIAN_POINT('',(10.0175,13.,-2.2243318298365E-15));
#194=CARTESIAN_POINT('',(4.9825,13.,-1.10633724403898E-15));
#195=CARTESIAN_POINT('Ctrl Pts',(10.0175,13.,-2.91433543964104E-15));
#196=CARTESIAN_POINT('Ctrl Pts',(10.0175,13.,0.316957900114328));
#197=CARTESIAN_POINT('Ctrl Pts',(9.95399226554678,12.9872348665207,0.654500961874765));
#198=CARTESIAN_POINT('Ctrl Pts',(9.6968210413457,12.9411056013066,1.27453003435932));
#199=CARTESIAN_POINT('Ctrl Pts',(9.50320130981206,12.9083772904693,1.55708133346221));
#200=CARTESIAN_POINT('Ctrl Pts',(9.05707037264315,12.8467058865032,2.00321227063112));
#201=CARTESIAN_POINT('Ctrl Pts',(8.77452373849562,12.8137054248963,2.19682341389388));
#202=CARTESIAN_POINT('Ctrl Pts',(8.15451084169095,12.7669503409662,2.45398840647089));
#203=CARTESIAN_POINT('Ctrl Pts',(7.81697347492997,12.7539089596092,2.5175));
#204=CARTESIAN_POINT('Ctrl Pts',(7.18302652507003,12.7539089596092,2.5175));
#205=CARTESIAN_POINT('Ctrl Pts',(6.84548915830906,12.7669503409662,2.45398840647089));
#206=CARTESIAN_POINT('Ctrl Pts',(6.22547626150439,12.8137054248963,2.19682341389388));
#207=CARTESIAN_POINT('Ctrl Pts',(5.94292962735685,12.8467058865032,2.00321227063112));
#208=CARTESIAN_POINT('Ctrl Pts',(5.49679869018794,12.9083772904693,1.55708133346221));
#209=CARTESIAN_POINT('Ctrl Pts',(5.3031789586543,12.9411056013066,1.27453003435932));
#210=CARTESIAN_POINT('Ctrl Pts',(5.04600773445322,12.9872348665207,0.654500961874767));
#211=CARTESIAN_POINT('Ctrl Pts',(4.9825,13.,0.31695790011433));
#212=CARTESIAN_POINT('Ctrl Pts',(4.9825,13.,-1.66533453693773E-15));
#213=CARTESIAN_POINT('',(7.5,12.7539089596092,-2.5175));
#214=CARTESIAN_POINT('Ctrl Pts',(7.5,12.7539089596092,-2.5175));
#215=CARTESIAN_POINT('Ctrl Pts',(7.81697347492997,12.7539089596092,-2.5175));
#216=CARTESIAN_POINT('Ctrl Pts',(8.15451084169094,12.7669503409662,-2.45398840647089));
#217=CARTESIAN_POINT('Ctrl Pts',(8.77452373849561,12.8137054248963,-2.19682341389389));
#218=CARTESIAN_POINT('Ctrl Pts',(9.05707037264315,12.8467058865032,-2.00321227063112));
#219=CARTESIAN_POINT('Ctrl Pts',(9.50320130981206,12.9083772904693,-1.55708133346221));
#220=CARTESIAN_POINT('Ctrl Pts',(9.6968210413457,12.9411056013066,-1.27453003435932));
#221=CARTESIAN_POINT('Ctrl Pts',(9.95399226554678,12.9872348665207,-0.65450096187477));
#222=CARTESIAN_POINT('Ctrl Pts',(10.0175,13.,-0.316957900114334));
#223=CARTESIAN_POINT('Ctrl Pts',(10.0175,13.,-2.70616862252382E-15));
#224=CARTESIAN_POINT('',(7.5,6.5,-2.5175));
#225=CARTESIAN_POINT('Ctrl Pts',(4.9825,13.,-1.59594559789866E-15));
#226=CARTESIAN_POINT('Ctrl Pts',(4.9825,13.,-0.316957900114333));
#227=CARTESIAN_POINT('Ctrl Pts',(5.04600773445322,12.9872348665207,-0.65450096187477));
#228=CARTESIAN_POINT('Ctrl Pts',(5.3031789586543,12.9411056013066,-1.27453003435932));
#229=CARTESIAN_POINT('Ctrl Pts',(5.49679869018794,12.9083772904693,-1.55708133346221));
#230=CARTESIAN_POINT('Ctrl Pts',(5.94292962735685,12.8467058865032,-2.00321227063112));
#231=CARTESIAN_POINT('Ctrl Pts',(6.22547626150438,12.8137054248963,-2.19682341389389));
#232=CARTESIAN_POINT('Ctrl Pts',(6.84548915830905,12.7669503409662,-2.45398840647089));
#233=CARTESIAN_POINT('Ctrl Pts',(7.18302652507003,12.7539089596092,-2.5175));
#234=CARTESIAN_POINT('Ctrl Pts',(7.5,12.7539089596092,-2.5175));
#235=CARTESIAN_POINT('Origin',(37.5,0.,-7.81991034646115E-15));
#236=CARTESIAN_POINT('',(61.,-6.3,-1.22664310787366E-14));
#237=CARTESIAN_POINT('Origin',(61.,0.,-1.30379585621994E-14));
#238=CARTESIAN_POINT('',(14.,-6.3,-1.83033464726008E-15));
#239=CARTESIAN_POINT('',(37.5,-6.3,-7.04838286299832E-15));
#240=CARTESIAN_POINT('Origin',(14.,0.,-2.60186213072292E-15));
#241=CARTESIAN_POINT('Origin',(14.,0.,-2.60186213072292E-15));
#242=CARTESIAN_POINT('Origin',(30.5,0.,-6.77236045021345E-15));
#243=CARTESIAN_POINT('',(61.,-1.59204083889156E-15,13.));
#244=CARTESIAN_POINT('Origin',(61.,0.,-1.35447209004269E-14));
#245=CARTESIAN_POINT('',(4.44089209850063E-15,-1.59204083889156E-15,13.));
#246=CARTESIAN_POINT('',(30.5,-1.59204083889156E-15,13.));
#247=CARTESIAN_POINT('Origin',(0.,0.,0.));
#248=CARTESIAN_POINT('Origin',(0.,0.,0.));
#249=CARTESIAN_POINT('Origin',(61.,0.,-1.35447209004269E-14));
#250=CARTESIAN_POINT('',(0.,0.,0.));
#251=CARTESIAN_POINT('',(0.,0.,0.));
#252=UNCERTAINTY_MEASURE_WITH_UNIT(LENGTH_MEASURE(0.01),#260,
'DISTANCE_ACCURACY_VALUE',
'Maximum model space distance between geometric entities at asserted c
onnectivities');
#253=UNCERTAINTY_MEASURE_WITH_UNIT(LENGTH_MEASURE(0.01),#260,
'DISTANCE_ACCURACY_VALUE',
'Maximum model space distance between geometric entities at asserted c
onnectivities');
#254=UNCERTAINTY_MEASURE_WITH_UNIT(LENGTH_MEASURE(0.01),#260,
'DISTANCE_ACCURACY_VALUE',
'Maximum model space distance between geometric entities at asserted c
onnectivities');
#255=UNCERTAINTY_MEASURE_WITH_UNIT(LENGTH_MEASURE(0.01),#260,
'DISTANCE_ACCURACY_VALUE',
'Maximum model space distance between geometric entities at asserted c
onnectivities');
#256=(
GEOMETRIC_REPRESENTATION_CONTEXT(3)
GLOBAL_UNCERTAINTY_ASSIGNED_CONTEXT((#252))
GLOBAL_UNIT_ASSIGNED_CONTEXT((#260,#262,#263))
REPRESENTATION_CONTEXT('','3D')
);
#257=(
GEOMETRIC_REPRESENTATION_CONTEXT(3)
GLOBAL_UNCERTAINTY_ASSIGNED_CONTEXT((#253))
GLOBAL_UNIT_ASSIGNED_CONTEXT((#260,#262,#263))
REPRESENTATION_CONTEXT('','3D')
);
#258=(
GEOMETRIC_REPRESENTATION_CONTEXT(3)
GLOBAL_UNCERTAINTY_ASSIGNED_CONTEXT((#254))
GLOBAL_UNIT_ASSIGNED_CONTEXT((#260,#262,#263))
REPRESENTATION_CONTEXT('','3D')
);
#259=(
GEOMETRIC_REPRESENTATION_CONTEXT(3)
GLOBAL_UNCERTAINTY_ASSIGNED_CONTEXT((#255))
GLOBAL_UNIT_ASSIGNED_CONTEXT((#260,#262,#263))
REPRESENTATION_CONTEXT('','3D')
);
#260=(
LENGTH_UNIT()
NAMED_UNIT(*)
SI_UNIT(.MILLI.,.METRE.)
);
#261=(
LENGTH_UNIT()
NAMED_UNIT(*)
SI_UNIT($,.METRE.)
);
#262=(
NAMED_UNIT(*)
PLANE_ANGLE_UNIT()
SI_UNIT($,.RADIAN.)
);
#263=(
NAMED_UNIT(*)
SI_UNIT($,.STERADIAN.)
SOLID_ANGLE_UNIT()
);
#264=SHAPE_DEFINITION_REPRESENTATION(#267,#272);
#265=SHAPE_DEFINITION_REPRESENTATION(#268,#273);
#266=SHAPE_DEFINITION_REPRESENTATION(#269,#274);
#267=PRODUCT_DEFINITION_SHAPE('',$,#276);
#268=PRODUCT_DEFINITION_SHAPE('',$,#277);
#269=PRODUCT_DEFINITION_SHAPE('',$,#278);
#270=PRODUCT_DEFINITION_SHAPE($,$,#17);
#271=PRODUCT_DEFINITION_SHAPE($,$,#18);
#272=SHAPE_REPRESENTATION('',(#129,#145),#256);
#273=SHAPE_REPRESENTATION('',(#130,#144),#257);
#274=SHAPE_REPRESENTATION('',(#131),#258);
#275=PRODUCT_DEFINITION_CONTEXT('part definition',#286,'design');
#276=PRODUCT_DEFINITION('Corpo de prova','Corpo de prova v1',#279,#275);
#277=PRODUCT_DEFINITION('usinagem tarugo','usinagem tarugo v2',#280,#275);
#278=PRODUCT_DEFINITION('Componente1','Componente1',#281,#275);
#279=PRODUCT_DEFINITION_FORMATION('',$,#288);
#280=PRODUCT_DEFINITION_FORMATION('',$,#289);
#281=PRODUCT_DEFINITION_FORMATION('',$,#290);
#282=PRODUCT_RELATED_PRODUCT_CATEGORY('Corpo de prova v1',
'Corpo de prova v1',(#288));
#283=PRODUCT_RELATED_PRODUCT_CATEGORY('usinagem tarugo v2',
'usinagem tarugo v2',(#289));
#284=PRODUCT_RELATED_PRODUCT_CATEGORY('Componente1','Componente1',(#290));
#285=APPLICATION_PROTOCOL_DEFINITION('international standard',
'automotive_design',2009,#286);
#286=APPLICATION_CONTEXT(
'Core Data for Automotive Mechanical Design Process');
#287=PRODUCT_CONTEXT('part definition',#286,'mechanical');
#288=PRODUCT('Corpo de prova','Corpo de prova v1',$,(#287));
#289=PRODUCT('usinagem tarugo','usinagem tarugo v2',$,(#287));
#290=PRODUCT('Componente1','Componente1',$,(#287));
#291=PRESENTATION_STYLE_ASSIGNMENT((#293));
#292=PRESENTATION_STYLE_ASSIGNMENT((#294));
#293=SURFACE_STYLE_USAGE(.BOTH.,#295);
#294=SURFACE_STYLE_USAGE(.BOTH.,#296);
#295=SURFACE_SIDE_STYLE('',(#297));
#296=SURFACE_SIDE_STYLE('',(#298));
#297=SURFACE_STYLE_FILL_AREA(#299);
#298=SURFACE_STYLE_FILL_AREA(#300);
#299=FILL_AREA_STYLE('A\X\E7o - Acetinado',(#301));
#300=FILL_AREA_STYLE('Alum\X\EDnio - Acetinado',(#302));
#301=FILL_AREA_STYLE_COLOUR('A\X\E7o - Acetinado',#303);
#302=FILL_AREA_STYLE_COLOUR('Alum\X\EDnio - Acetinado',#304);
#303=COLOUR_RGB('A\X\E7o - Acetinado',0.627450980392157,0.627450980392157,
0.627450980392157);
#304=COLOUR_RGB('Alum\X\EDnio - Acetinado',0.96078431372549,0.96078431372549,
0.964705882352941);
ENDSEC;
END-ISO-10303-21;
